<?xml version="1.0" encoding="UTF-8" standalone="no"?>
<!DOCTYPE svg PUBLIC "-//W3C//DTD SVG 1.1//EN" "http://www.w3.org/Graphics/SVG/1.1/DTD/svg11.dtd">
<svg width="100%" height="100%" viewBox="0 0 100 125" version="1.1" xmlns="http://www.w3.org/2000/svg" xmlns:xlink="http://www.w3.org/1999/xlink" xml:space="preserve" style="fill-rule:evenodd;clip-rule:evenodd;stroke-linejoin:round;stroke-miterlimit:1.41421;">
    <g transform="matrix(-0.951957,0.30623,0.314994,0.979201,82.4248,-17.3839)">
        <path d="M88.44,41.21C87.455,38.106 84.547,35.987 81.29,36L59.46,36C56.546,36.018 54.127,38.349 54,41.26L49.1,41.26L49.1,38.26C49.1,37.437 48.423,36.76 47.6,36.76C46.777,36.76 46.1,37.437 46.1,38.26L46.1,41.26L41,41.26L41,38.26C41,37.437 40.323,36.76 39.5,36.76C38.677,36.76 38,37.437 38,38.26L38,41.26L31.83,41.26L31.83,38.26C31.83,37.437 31.153,36.76 30.33,36.76C29.507,36.76 28.83,37.437 28.83,38.26L28.83,41.26L23.83,41.26L23.83,38.26C23.83,37.437 23.153,36.76 22.33,36.76C21.507,36.76 20.83,37.437 20.83,38.26L20.83,41.34C19.462,41.494 18.139,41.923 16.94,42.6L13.7,39.39C13.422,39.131 13.057,38.987 12.677,38.987C11.855,38.987 11.177,39.665 11.177,40.487C11.177,40.867 11.321,41.232 11.58,41.51L14.52,44.45C13.802,45.206 13.202,46.065 12.74,47L9.17,45.45C8.985,45.372 8.786,45.332 8.585,45.332C7.76,45.332 7.082,46.01 7.082,46.835C7.082,47.438 7.444,47.985 8,48.22L11.79,49.82C11.531,51.206 11.572,52.631 11.91,54L8,55.61C7.418,55.83 7.032,56.391 7.032,57.013C7.032,57.836 7.709,58.513 8.532,58.513C8.752,58.513 8.97,58.464 9.17,58.37L13,56.75C13.468,57.575 14.047,58.332 14.72,59L11.57,62.15C11.266,62.434 11.093,62.831 11.093,63.247C11.093,64.07 11.77,64.747 12.593,64.747C13.009,64.747 13.406,64.574 13.69,64.27L16.88,61C16.968,60.901 17.042,60.79 17.1,60.67C18.246,61.284 19.498,61.674 20.79,61.82L20.79,64.9C20.79,65.723 21.467,66.4 22.29,66.4C23.113,66.4 23.79,65.723 23.79,64.9L23.79,61.9L28.79,61.9L28.79,64.9C28.79,65.723 29.467,66.4 30.29,66.4C31.113,66.4 31.79,65.723 31.79,64.9L31.79,61.9L38,61.9L38,64.9C38,65.723 38.677,66.4 39.5,66.4C40.323,66.4 41,65.723 41,64.9L41,61.9L46,61.9L46,64.9C46,65.723 46.677,66.4 47.5,66.4C48.323,66.4 49,65.723 49,64.9L49,61.9L54,61.9C54.122,64.826 56.561,67.167 59.49,67.17L86.49,67.17C86.492,67.17 86.493,67.17 86.495,67.17C90.609,67.17 93.995,63.784 93.995,59.67C93.995,58.896 93.875,58.127 93.64,57.39L88.44,41.21ZM54,58.93L22,58.93C17.973,58.93 14.66,55.617 14.66,51.59C14.66,47.563 17.973,44.25 22,44.25L54,44.25L54,58.93ZM90.1,62.36C89.26,63.525 87.906,64.214 86.47,64.21L59.47,64.21C58.106,64.194 56.994,63.064 57,61.7L57,41.49C57,40.119 58.129,38.99 59.5,38.99L81.29,38.99C83.245,38.985 84.988,40.257 85.58,42.12L90.75,58.34C91.193,59.705 90.951,61.204 90.1,62.36L90.1,62.36Z" style="fill:rgb(252,252,252);fill-rule:nonzero;"/>
    </g>
    <g transform="matrix(-0.951957,0.30623,0.314994,0.979201,82.4248,-17.3839)">
        <path d="M78,43.83C75.133,43.835 72.775,46.193 72.77,49.06L72.77,54.14C72.77,57.009 75.131,59.37 78,59.37C80.869,59.37 83.23,57.009 83.23,54.14C83.23,54.14 83.23,49.06 83.23,49.06C83.225,46.193 80.867,43.835 78,43.83ZM80.23,54.14C80.23,55.363 79.223,56.37 78,56.37C76.777,56.37 75.77,55.363 75.77,54.14C75.77,54.14 75.77,49.06 75.77,49.06C75.77,47.837 76.777,46.83 78,46.83C79.223,46.83 80.23,47.837 80.23,49.06L80.23,54.14Z" style="fill:rgb(252,252,252);fill-rule:nonzero;"/>
    </g>
    <g transform="matrix(-0.951957,0.30623,0.314994,0.979201,82.4248,-17.3839)">
        <path d="M67.83,44.7L62.83,44.7C62.007,44.7 61.33,45.377 61.33,46.2C61.33,47.023 62.007,47.7 62.83,47.7L67.83,47.7C68.653,47.7 69.33,47.023 69.33,46.2C69.33,45.377 68.653,44.7 67.83,44.7Z" style="fill:rgb(252,252,252);fill-rule:nonzero;"/>
    </g>
    <g transform="matrix(-0.951957,0.30623,0.314994,0.979201,82.4248,-17.3839)">
        <path d="M67.83,50.1L62.83,50.1C62.007,50.1 61.33,50.777 61.33,51.6C61.33,52.423 62.007,53.1 62.83,53.1L67.83,53.1C68.653,53.1 69.33,52.423 69.33,51.6C69.33,50.777 68.653,50.1 67.83,50.1Z" style="fill:rgb(252,252,252);fill-rule:nonzero;"/>
    </g>
    <g transform="matrix(-0.951957,0.30623,0.314994,0.979201,82.4248,-17.3839)">
        <path d="M67.83,55.49L62.83,55.49C62.007,55.49 61.33,56.167 61.33,56.99C61.33,57.813 62.007,58.49 62.83,58.49L67.83,58.49C68.653,58.49 69.33,57.813 69.33,56.99C69.33,56.167 68.653,55.49 67.83,55.49Z" style="fill:rgb(252,252,252);fill-rule:nonzero;"/>
    </g>
    <g transform="matrix(-0.951957,0.30623,0.314994,0.979201,82.4248,-17.3839)">
        <path d="M18.75,51.6C18.755,53.933 20.677,55.85 23.01,55.85C25.347,55.85 27.27,53.927 27.27,51.59C27.27,49.253 25.347,47.33 23.01,47.33C23.007,47.33 23.003,47.33 23,47.33C20.665,47.341 18.75,49.265 18.75,51.6ZM23,50.33C23.691,50.33 24.26,50.899 24.26,51.59C24.26,52.281 23.691,52.85 23,52.85C22.309,52.85 21.74,52.281 21.74,51.59C21.74,50.899 22.309,50.33 23,50.33L23,50.33Z" style="fill:rgb(252,252,252);fill-rule:nonzero;"/>
    </g>
</svg>
