<?xml version="1.0" encoding="UTF-8" standalone="no"?>
<!DOCTYPE svg PUBLIC "-//W3C//DTD SVG 1.1//EN" "http://www.w3.org/Graphics/SVG/1.1/DTD/svg11.dtd">
<svg width="100%" height="100%" viewBox="0 0 60 85" version="1.1" xmlns="http://www.w3.org/2000/svg" xmlns:xlink="http://www.w3.org/1999/xlink" xml:space="preserve" style="fill-rule:evenodd;clip-rule:evenodd;stroke-linejoin:round;stroke-miterlimit:1.41421;">
    <g transform="matrix(-2.14796e-16,0.561036,-0.593036,-2.27048e-16,83.8004,-223.674)">
        <path d="M418,120C416.895,120 416,119.105 416,118C416,116.895 416.895,116 418,116L482,116C483.105,116 484,116.895 484,118C484,119.105 483.105,120 482,120L418,120ZM418,64C416.895,64 416,63.105 416,62C416,60.895 416.895,60 418,60L482,60C483.105,60 484,60.895 484,62C484,63.105 483.105,64 482,64L418,64ZM420,92C418.895,92 418,91.105 418,90C418,88.895 418.895,88 420,88L426,88C427.105,88 428,88.895 428,90C428,91.105 427.105,92 426,92L420,92ZM474,92C472.895,92 472,91.105 472,90C472,88.895 472.895,88 474,88L480,88C481.105,88 482,88.895 482,90C482,91.105 481.105,92 480,92L474,92ZM438,92C436.895,92 436,91.105 436,90C436,88.895 436.895,88 438,88L444,88C445.105,88 446,88.895 446,90C446,91.105 445.105,92 444,92L438,92ZM456,92C454.895,92 454,91.105 454,90C454,88.895 454.895,88 456,88L462,88C463.105,88 464,88.895 464,90C464,91.105 463.105,92 462,92L456,92Z" style="fill:rgb(249,249,249);fill-rule:nonzero;"/>
    </g>
</svg>
