<?xml version="1.0" encoding="UTF-8" standalone="no"?>
<!DOCTYPE svg PUBLIC "-//W3C//DTD SVG 1.1//EN" "http://www.w3.org/Graphics/SVG/1.1/DTD/svg11.dtd">
<svg width="100%" height="100%" viewBox="0 0 100 125" version="1.1" xmlns="http://www.w3.org/2000/svg" xmlns:xlink="http://www.w3.org/1999/xlink" xml:space="preserve" style="fill-rule:evenodd;clip-rule:evenodd;stroke-linejoin:round;stroke-miterlimit:1.41421;">
    <path d="M94,73L72,73L72,62.983L81.425,63.14L70.657,39.793L60.338,63.053L70.125,63.045L70.029,73L41,73L41,44.782L39,41.535L39,32L33,32L33,40.463L24.736,29.464L7,47.64L7,71C7,71.552 6.552,72 6,72C5.448,72 5,71.552 5,71L5,46.826L24.935,26.398L31,34.472L31,30L41,30L41,40.969L43,44.216L43,71L68.049,71L68.106,65.047L57.262,65.056L70.622,34.941L84.575,65.193L74,65.017L74,71L94,71C94.552,71 95,71.448 95,72C95,72.552 94.552,73 94,73Z" style="fill:rgb(254,254,254);fill-rule:nonzero;"/>
</svg>
