<?xml version="1.0" encoding="UTF-8" standalone="no"?>
<!DOCTYPE svg PUBLIC "-//W3C//DTD SVG 1.1//EN" "http://www.w3.org/Graphics/SVG/1.1/DTD/svg11.dtd">
<svg width="100%" height="100%" viewBox="0 0 100 125" version="1.1" xmlns="http://www.w3.org/2000/svg" xmlns:xlink="http://www.w3.org/1999/xlink" xml:space="preserve" style="fill-rule:evenodd;clip-rule:evenodd;stroke-linejoin:round;stroke-miterlimit:1.41421;">
    <g transform="matrix(0.751853,-0.00509432,0.00509432,0.751853,11.2071,7.84398)">
        <path d="M11.029,72.5C11.492,73.302 12.332,73.75 13.196,73.75C13.62,73.75 14.05,73.642 14.444,73.415L22.963,68.497L22.963,78.334C22.963,79.715 24.082,80.834 25.463,80.834C26.844,80.834 27.963,79.715 27.963,78.334L27.963,65.61L37.01,60.387L40.09,62.165L35.566,70C34.876,71.196 35.285,72.725 36.481,73.415C36.875,73.643 37.305,73.75 37.729,73.75C38.593,73.75 39.434,73.301 39.896,72.5L44.419,64.665L47.499,66.443L47.499,76.89L36.48,83.251C35.284,83.941 34.875,85.47 35.565,86.666C36.028,87.468 36.868,87.916 37.732,87.916C38.156,87.916 38.586,87.808 38.98,87.581L47.499,82.663L47.499,92.5C47.499,93.881 48.618,95 49.999,95C51.38,95 52.499,93.881 52.499,92.5L52.499,82.664L61.018,87.582C61.412,87.81 61.842,87.917 62.266,87.917C63.13,87.917 63.971,87.468 64.433,86.667C65.123,85.471 64.714,83.942 63.518,83.252L52.5,76.89L52.5,66.443L55.58,64.665L60.103,72.5C60.566,73.302 61.406,73.75 62.27,73.75C62.694,73.75 63.124,73.642 63.518,73.415C64.714,72.725 65.123,71.196 64.433,70L59.91,62.165L62.99,60.387L72.037,65.61L72.037,78.333C72.037,79.714 73.156,80.833 74.537,80.833C75.918,80.833 77.037,79.714 77.037,78.333L77.037,68.496L85.556,73.414C85.95,73.642 86.38,73.749 86.804,73.749C87.668,73.749 88.509,73.3 88.971,72.499C89.661,71.303 89.252,69.774 88.056,69.084L79.537,64.166L88.056,59.248C89.252,58.558 89.661,57.029 88.971,55.833C88.281,54.637 86.751,54.226 85.556,54.918L74.537,61.28L65.49,56.057L65.49,52.5L74.537,52.5C75.918,52.5 77.037,51.381 77.037,50C77.037,48.619 75.918,47.5 74.537,47.5L65.49,47.5L65.49,43.943L74.537,38.72L85.556,45.082C85.95,45.31 86.38,45.417 86.804,45.417C87.668,45.417 88.509,44.968 88.971,44.167C89.661,42.971 89.252,41.442 88.056,40.752L79.537,35.834L88.056,30.916C89.252,30.226 89.661,28.697 88.971,27.501C88.281,26.305 86.751,25.894 85.556,26.586L77.037,31.504L77.037,21.667C77.037,20.286 75.918,19.167 74.537,19.167C73.156,19.167 72.037,20.286 72.037,21.667L72.037,34.39L62.99,39.613L59.91,37.835L64.434,30C65.124,28.804 64.715,27.275 63.519,26.585C62.322,25.893 60.793,26.305 60.104,27.5L55.581,35.335L52.501,33.557L52.501,23.11L63.52,16.749C64.716,16.059 65.125,14.53 64.435,13.334C63.745,12.138 62.215,11.726 61.02,12.419L52.5,17.336L52.5,7.5C52.5,6.119 51.381,5 50,5C48.619,5 47.5,6.119 47.5,7.5L47.5,17.336L38.981,12.418C37.784,11.725 36.256,12.138 35.566,13.333C34.876,14.529 35.285,16.058 36.481,16.748L47.5,23.11L47.5,33.557L44.42,35.335L39.896,27.5C39.206,26.304 37.676,25.893 36.481,26.585C35.285,27.275 34.876,28.804 35.566,30L40.089,37.835L37.009,39.613L27.962,34.39L27.962,21.667C27.962,20.286 26.843,19.167 25.462,19.167C24.081,19.167 22.962,20.286 22.962,21.667L22.962,31.504L14.443,26.586C13.246,25.894 11.717,26.306 11.028,27.501C10.338,28.697 10.747,30.226 11.943,30.916L20.462,35.834L11.943,40.752C10.747,41.442 10.338,42.971 11.028,44.167C11.491,44.969 12.331,45.417 13.195,45.417C13.619,45.417 14.049,45.309 14.443,45.082L25.462,38.72L34.509,43.943L34.509,47.5L25.462,47.5C24.081,47.5 22.962,48.619 22.962,50C22.962,51.381 24.081,52.5 25.462,52.5L34.509,52.5L34.509,56.057L25.462,61.28L14.443,54.918C13.246,54.226 11.717,54.638 11.028,55.833C10.338,57.029 10.747,58.558 11.943,59.248L20.462,64.166L11.943,69.084C10.748,69.775 10.338,71.304 11.029,72.5ZM39.51,43.943L50,37.887L60.49,43.944L60.49,56.057L50,62.113L39.51,56.056L39.51,43.943Z" style="fill:rgb(251,251,251);fill-rule:nonzero;"/>
    </g>
</svg>
