<?xml version="1.0" encoding="UTF-8" standalone="no"?>
<!DOCTYPE svg PUBLIC "-//W3C//DTD SVG 1.1//EN" "http://www.w3.org/Graphics/SVG/1.1/DTD/svg11.dtd">
<svg width="100%" height="100%" viewBox="0 0 300 375" version="1.1" xmlns="http://www.w3.org/2000/svg" xmlns:xlink="http://www.w3.org/1999/xlink" xml:space="preserve" style="fill-rule:evenodd;clip-rule:evenodd;stroke-linejoin:round;stroke-miterlimit:1.41421;">
    <path d="M188.336,187.701C190.369,187.701 192.017,189.339 192.017,191.359C192.017,193.38 190.369,195.018 188.336,195.018L120.313,195.018C118.279,195.018 116.632,193.38 116.632,191.359C116.632,189.339 118.279,187.701 120.313,187.701L188.336,187.701ZM246.212,157.546C248.484,159.523 249.86,162.401 249.989,165.443C250.12,168.493 248.987,171.488 246.881,173.66L244.15,176.478C243.427,177.224 242.463,177.599 241.498,177.599C240.579,177.599 239.659,177.26 238.945,176.576C237.481,175.173 237.437,172.859 238.847,171.402L241.579,168.584C242.304,167.835 242.68,166.828 242.634,165.752C242.589,164.685 242.138,163.724 241.362,163.051L234.476,157.057C233.697,156.379 233.042,155.599 232.491,154.757L218.353,154.757C216.32,154.757 214.673,153.12 214.673,151.099C214.673,149.078 216.32,147.44 218.353,147.44L230.771,147.44C230.78,147.348 230.778,147.255 230.792,147.16L232.128,137.402L220.807,137.402C218.774,137.402 217.127,135.766 217.127,133.744C217.127,131.723 218.774,130.085 220.807,130.085L233.129,130.085L233.961,124.013C234.204,122.235 233.226,120.534 231.633,119.968L173.741,99.35C172.663,98.968 171.482,99.179 170.577,99.912L150.358,116.337C148.992,117.446 148.59,119.426 149.407,121.041L155.273,132.643C157.046,136.151 156.869,140.24 154.798,143.577C152.806,146.785 149.393,148.701 145.664,148.701L139.501,148.701C135.395,148.701 131.58,146.271 129.782,142.51L119.254,120.474C118.661,119.232 117.485,118.46 116.185,118.46L102.396,118.46C96.437,118.46 91.587,113.518 91.587,107.445L91.587,86.016C91.587,83.977 90.041,82.317 88.139,82.317L87.349,82.317C85.449,82.317 83.902,83.977 83.902,86.016L83.902,123.118C83.902,125.626 83.049,128.084 81.503,130.037L65.589,150.116C64.565,151.409 64.49,153.274 65.406,154.652C66.528,156.338 66.063,158.607 64.366,159.721C62.673,160.837 60.387,160.374 59.266,158.688C56.579,154.65 56.796,149.387 59.806,145.588L75.719,125.51C76.248,124.843 76.54,123.991 76.54,123.118L76.54,86.016C76.54,79.941 81.389,75 87.349,75L88.139,75C94.1,75 98.949,79.941 98.949,86.016L98.949,107.445C98.949,109.484 100.496,111.143 102.396,111.143L116.185,111.143C120.292,111.143 124.107,113.573 125.904,117.334L136.432,139.371C137.026,140.612 138.203,141.384 139.501,141.384L145.664,141.384C147.329,141.384 148.225,140.232 148.531,139.737C149.253,138.574 149.312,137.151 148.693,135.927L142.83,124.327C140.477,119.674 141.685,113.93 145.7,110.671L153.844,104.055L147.285,95.466L135.298,105.07C134.619,105.613 133.803,105.879 132.992,105.879C131.917,105.879 130.849,105.413 130.123,104.517C128.848,102.944 129.096,100.64 130.679,99.372L160.084,75.811C161.666,74.545 163.983,74.79 165.259,76.363C166.534,77.937 166.286,80.239 164.703,81.507L153.019,90.871L159.549,99.421L165.918,94.248C168.838,91.871 172.691,91.206 176.223,92.462L234.117,113.079C238.963,114.806 241.966,119.818 241.255,125.001L238.086,148.146C237.911,149.429 238.385,150.734 239.327,151.552L246.212,157.546ZM223.579,177.199C236.372,177.199 246.742,187.901 246.742,201.099C246.742,214.301 236.372,225.001 223.579,225.001C210.786,225.001 200.417,214.301 200.417,201.099C200.417,187.901 210.786,177.199 223.579,177.199ZM223.579,217.684C232.292,217.684 239.38,210.245 239.38,201.099C239.38,191.955 232.292,184.516 223.579,184.516C214.866,184.516 207.779,191.955 207.779,201.099C207.779,210.245 214.866,217.684 223.579,217.684ZM79.701,163.703C96.104,163.703 109.402,177.425 109.402,194.352C109.402,211.279 96.104,225.001 79.701,225.001C63.297,225.001 50,211.279 50,194.352C50,177.425 63.297,163.703 79.701,163.703ZM79.701,217.684C92.02,217.684 102.04,207.218 102.04,194.352C102.04,181.487 92.02,171.02 79.701,171.02C67.383,171.02 57.362,181.487 57.362,194.352C57.362,207.218 67.383,217.684 79.701,217.684Z" style="fill:rgb(253,253,253);"/>
</svg>
